<svg width="80" height="80" viewBox="0 0 80 80" fill="none" xmlns="http://www.w3.org/2000/svg">
<circle cx="40" cy="40" r="38.5" fill="#FFFEF4" stroke="black" stroke-width="3"/>
<path d="M60 37.4292C60 38.1159 59.7425 38.7167 59.2275 39.2318C58.7124 39.6896 58.1116 39.9185 57.4249 39.9185H24.9785C24.9785 43.3519 25.6652 46.4421 27.0386 49.1888C28.4692 51.8784 30.4721 54.0243 33.0472 55.6266C35.6795 57.1717 38.7697 57.9442 42.3176 57.9442C45.0644 57.9442 47.525 57.372 49.6996 56.2275C51.8741 55.083 53.6195 53.6237 54.9356 51.8498C55.5651 51.3348 56.1659 51.0772 56.7382 51.0772C57.3104 51.0772 57.8255 51.3062 58.2833 51.7639C58.7411 52.2217 58.97 52.7368 58.97 53.309C58.97 53.9385 58.6838 54.5393 58.1116 55.1116C56.2804 57.3433 53.9628 59.1745 51.1588 60.6051C48.412 62.0358 45.4936 62.7511 42.4034 62.7511C37.9971 62.7511 34.1059 61.8069 30.7296 59.9185C27.3534 58.03 24.721 55.3977 22.8326 52.0215C20.9442 48.588 20 44.6395 20 40.176C20 35.4835 20.9156 31.392 22.7468 27.9013C24.6352 24.3534 27.1245 21.6638 30.2146 19.8326C33.3047 17.9442 36.5951 17 40.0858 17C43.5193 17 46.7239 17.8011 49.6996 19.4034C52.7325 21.0057 55.1931 23.3519 57.0815 26.4421C58.97 29.5322 59.9428 33.1946 60 37.4292ZM40.0858 21.9785C36.7668 21.9785 33.6767 23.123 30.8155 25.412C28.0114 27.701 26.2089 30.9914 25.4077 35.2833H54.6781V34.5966C54.392 32.0215 53.5336 29.7897 52.103 27.9013C50.6724 25.9556 48.8698 24.4964 46.6953 23.5236C44.578 22.4936 42.3748 21.9785 40.0858 21.9785Z" fill="black"/>
</svg>
